<svg xmlns="http://www.w3.org/2000/svg" width="100" height="89"><path fill="#424242" d="M33.944 65.074a2.084 2.084 0 0 1 0-2.946L90.046 6.026l-.123-.123-15.617.06a2.083 2.083 0 0 1-2.084-2.084V2.143c0-1.15.933-2.083 2.084-2.083L97.916 0C99.068 0 100 .933 100 2.083l-.06 23.611a2.083 2.083 0 0 1-2.083 2.084h-1.736a2.083 2.083 0 0 1-2.083-2.084l.06-15.617-.124-.123-56.102 56.102a2.084 2.084 0 0 1-2.946 0l-.982-.982zm40.277-27.02l-1.389 1.39c-.39.39-.61.92-.61 1.473v39.639a2.778 2.778 0 0 1-2.778 2.777H8.334a2.778 2.778 0 0 1-2.778-2.777V19.444a2.778 2.778 0 0 1 2.777-2.777h59.024c.553 0 1.082-.22 1.473-.61l1.389-1.39c1.312-1.312.383-3.556-1.473-3.556H8.333A8.333 8.333 0 0 0 0 19.444v61.112a8.333 8.333 0 0 0 8.333 8.333h61.111a8.333 8.333 0 0 0 8.334-8.333V39.528c0-1.856-2.244-2.786-3.557-1.473z"/></svg>