<svg xmlns="http://www.w3.org/2000/svg" width="100" height="100" viewBox="0 0 100 100">
  <g opacity=".1" transform="translate(0 7)">
    <path d="M75,35.7142857 C80.9151786,35.7142857 85.7142857,30.9151786 85.7142857,25 C85.7142857,19.0848214 80.9151786,14.2857143 75,14.2857143 C69.0848214,14.2857143 64.2857143,19.0848214 64.2857143,25 C64.2857143,30.9151786 69.0848214,35.7142857 75,35.7142857 Z"/>
    <path d="M93.75,0 L6.25,0 C2.76785714,0 0,2.83482143 0,6.31696429 L0,79.3973214 C0,82.8794643 2.76785714,85.7142857 6.25,85.7142857 L93.75,85.7142857 C97.2321429,85.7142857 100,82.8794643 100,79.3973214 L100,6.31696429 C100,2.83482143 97.2321429,0 93.75,0 Z M70.7366071,44.1294643 C70.0669643,43.3482143 69.0401786,42.7455357 67.8794643,42.7455357 C66.7410714,42.7455357 65.9375,43.28125 65.0223214,44.0178571 L60.8482143,47.5446429 C59.9776786,48.1696429 59.2857143,48.59375 58.28125,48.59375 C57.3214286,48.59375 56.4508929,48.2366071 55.8258929,47.6785714 C55.6026786,47.4776786 55.2008929,47.0982143 54.8660714,46.7633929 L42.8571429,33.7723214 C41.9642857,32.7455357 40.625,32.0982143 39.1294643,32.0982143 C37.6339286,32.0982143 36.25,32.8348214 35.3794643,33.8392857 L7.14285714,67.9017857 L7.14285714,9.75446429 C7.36607143,8.23660714 8.54910714,7.14285714 10.0669643,7.14285714 L89.9107143,7.14285714 C91.4508929,7.14285714 92.7008929,8.28125 92.7901786,9.82142857 L92.8571429,67.9464286 L70.7366071,44.1294643 Z"/>
  </g>
</svg>
